<mxfile host="app.diagrams.net" modified="2023-05-04T06:04:57.170Z" agent="Mozilla/5.0 (Windows NT 10.0; Win64; x64) AppleWebKit/537.36 (KHTML, like Gecko) Chrome/112.0.0.0 Safari/537.36 Edg/112.0.1722.48" version="21.1.7" etag="Chtv3qPDlymOMfYko5a0" type="github">
  <diagram name="Page-1" id="NlFdqjWu1eqjzRhcmlVe">
    <mxGraphModel>
      <root>
        <mxCell id="0" />
        <mxCell id="1" parent="0" />
      </root>
    </mxGraphModel>
  </diagram>
</mxfile>
